# xmcd
#
# Track frame offsets: 
#        182
#        35252
#        55227
#        76022
#        110707
#        129192
#        152240
#
# Disc length: 2723 seconds
#
# Revision: 8
# Processed by: cddbd v1.5.2PL0 Copyright (c) Steve Scherf et al.
# Submitted via: ExactAudioCopyFreeDBPlugin 1.0
#
DISCID=4d0aa107
DTITLE=Canned Heat and John Lee Hooker - Hooker 'N Heat
DYEAR=1970
DGENRE=Blues
TTITLE0=The World Today
TTITLE1=I Got My Eyes On You
TTITLE2=Whiskey And Wimmen'
TTITLE3=Just You And Me
TTITLE4=Let's Make It
TTITLE5=Peavine
TTITLE6=Boogie Chillen No. 2
EXTD=YEAR: 1970
EXTT0=
EXTT1=
EXTT2=
EXTT3=
EXTT4=
EXTT5=
EXTT6=
PLAYORDER=
